<?xml version="1.0" encoding="iso-8859-1"?>
<!-- Generator: Adobe Illustrator 22.0.0, SVG Export Plug-In . SVG Version: 6.00 Build 0)  -->
<svg version="1.1" id="&#x56FE;&#x5C42;_1" xmlns="http://www.w3.org/2000/svg" xmlns:xlink="http://www.w3.org/1999/xlink" x="0px"
	 y="0px" viewBox="0 0 1285.268 308.185" style="enable-background:new 0 0 1285.268 308.185;" xml:space="preserve">
<g>
	<path style="fill:#0659AA;" d="M279.946,305.193h-241c-16.775,0-30.5-13.725-30.5-30.5v-241c0-16.775,13.725-30.5,30.5-30.5h241
		c16.775,0,30.5,13.725,30.5,30.5v241C310.446,291.468,296.721,305.193,279.946,305.193z"/>
	<g>
		<g>
			<path style="fill:#FFFFFF;stroke:#0659AA;stroke-width:23;stroke-miterlimit:10;" d="M274.17,121.896
				c0,12.761-0.593,21.509-1.777,26.243c-2.041,8.09-6.418,14.01-13.133,17.76c-7.768,4.342-19.649,6.512-35.646,6.512h-21.669
				v81.671c0,3.359-2.129,6.35-5.304,7.448l-39.357,13.624c-3.592,1.243-7.339-1.424-7.339-5.226V121.855h59.41
				c6.953,0,12.59-5.637,12.59-12.59v0c0-6.953-5.637-12.59-12.59-12.59H66.227l18.719-50.555h138.669
				c15.799,0,27.647,2.467,35.547,7.399c6.648,4.144,11.025,10.394,13.133,18.747c1.249,4.998,1.876,13.121,1.876,24.369V121.896z"
				/>
		</g>
		<path style="fill:#FFFFFF;" d="M181.685,125.406h-31.986v106.988c0,1.644-1.722,2.72-3.2,1.999l-22.944-11.196
			c-2.514-1.227-4.111-3.778-4.115-6.576l-0.137-91.216H66.733l11.713-28.213h103.239c7.791,0,14.106,6.316,14.106,14.106v0
			C195.791,119.091,189.476,125.406,181.685,125.406z"/>
		<circle style="fill:#0659AA;stroke:#FFFFFF;stroke-width:6;stroke-miterlimit:10;" cx="175.946" cy="255.693" r="12.5"/>
		<circle style="fill:#2AA0D3;stroke:#FFFFFF;stroke-width:6;stroke-miterlimit:10;" cx="182.946" cy="110.693" r="15.5"/>
	</g>
	<g>
		<g>
			<g>
				<path style="fill:#FFFFFF;" d="M432.491,207.701v-98.17h-34.778c-0.361,0-0.622-0.346-0.523-0.693l3.547-12.453
					c0.088-0.307,0.368-0.519,0.688-0.519h80.522c0.767,0,1.388,0.622,1.388,1.388v10.889c0,0.767-0.622,1.388-1.388,1.388h-34.111
					v98.17c0,0.34-0.276,0.617-0.617,0.617h-14.111C432.767,208.317,432.491,208.041,432.491,207.701z"/>
				<path style="fill:#FFFFFF;" d="M553.397,208.317c-0.373,0-0.675-0.302-0.675-0.675v-49.634c0-8.092-1.235-13.666-3.703-16.719
					c-2.47-3.053-6.706-4.58-12.711-4.58c-7.432,0-13.335,2.099-17.712,6.298c-4.378,4.199-6.565,9.861-6.565,16.986v47.321
					c0,0.554-0.449,1.003-1.003,1.003h-11.734c-0.554,0-1.003-0.449-1.003-1.003V97.244c0-0.762,0.617-1.379,1.379-1.379h12.362
					v42.218c2.494-4.428,5.929-7.799,10.307-10.115c4.376-2.315,9.492-3.474,15.345-3.474c6.158,0,11.349,0.929,15.574,2.787
					c4.224,1.859,7.481,4.645,9.771,8.36c1.272,1.985,2.188,4.313,2.749,6.985c0.56,2.672,0.84,6.909,0.84,12.711v3.893v48.413
					c0,0.373-0.302,0.675-0.675,0.675H553.397z"/>
				<path style="fill:#FFFFFF;" d="M590.199,207.283v-79.18c0-0.855,0.693-1.548,1.548-1.548h10.555
					c0.905,0,1.638,0.734,1.638,1.638v79.089c0,0.571-0.463,1.034-1.034,1.034h-11.672
					C590.662,208.317,590.199,207.854,590.199,207.283z"/>
				<path style="fill:#FFFFFF;" d="M682.742,208.317c-0.224,0-0.405-0.181-0.405-0.405v-49.904c0-8.041-1.235-13.601-3.703-16.681
					c-2.47-3.079-6.706-4.619-12.711-4.619c-7.685,0-13.654,2.176-17.902,6.527c-4.25,4.352-6.375,10.523-6.375,18.513v46.059
					c0,0.282-0.228,0.51-0.51,0.51h-12.721c-0.282,0-0.51-0.228-0.51-0.51v-79.532c0-0.95,0.77-1.719,1.719-1.719h10.967
					c0.245,0,0.444,0.199,0.444,0.444v11.465c3.155-4.733,6.895-8.245,11.222-10.535c4.326-2.29,9.339-3.435,15.04-3.435
					c6.158,0,11.349,0.929,15.574,2.787c4.224,1.859,7.481,4.645,9.771,8.36c1.272,1.985,2.188,4.313,2.749,6.985
					c0.56,2.672,0.84,6.909,0.84,12.711v3.893v48.683c0,0.224-0.181,0.405-0.405,0.405H682.742z"/>
				<path style="fill:#FFFFFF;" d="M778.597,198.316c-3.206,4.225-6.96,7.393-11.26,9.505c-4.302,2.111-9.199,3.168-14.695,3.168
					c-11.045,0-19.926-4.008-26.644-12.024c-6.718-8.016-10.077-18.614-10.077-31.796c0-13.028,3.371-23.5,10.115-31.415
					c6.743-7.913,15.662-11.871,26.758-11.871c5.394,0,10.14,1.031,14.238,3.092c4.096,2.061,7.901,5.356,11.413,9.886v-10.132
					c0-0.096,0.078-0.174,0.174-0.174h11.467c0.991,0,1.795,0.804,1.795,1.795v78.211c0,12.621-3.003,21.744-9.008,27.369
					c-6.006,5.623-15.701,8.435-29.086,8.435c-10.84,0-19.314-2.112-25.422-6.336c-6.107-4.225-9.161-10.078-9.161-17.559v-0.61
					h13.436v0.305c0,4.224,1.794,7.392,5.382,9.505c3.589,2.111,8.995,3.168,16.223,3.168c8.651,0,14.873-1.654,18.665-4.962
					c3.791-3.308,5.687-8.754,5.687-16.337V198.316z M754.397,136.25c-7.737,0-13.691,2.698-17.864,8.092
					c-4.174,5.396-6.26,13.106-6.26,23.131c0,9.823,2.138,17.471,6.413,22.941c4.275,5.471,10.23,8.206,17.864,8.206
					c8.346,0,14.517-2.506,18.513-7.519c3.995-5.013,5.993-12.711,5.993-23.094c0-10.484-2.074-18.398-6.222-23.742
					C768.685,138.923,762.539,136.25,754.397,136.25z"/>
				<path style="fill:#FFFFFF;" d="M810.767,181.75l10.676,0c1.142,0,2.099,0.837,2.287,1.964c0.765,4.585,2.679,8.129,5.742,10.632
					c3.485,2.851,8.436,4.275,14.848,4.275c5.904,0,10.56-1.157,13.971-3.474c3.409-2.315,5.116-5.483,5.116-9.505
					c0-3.002-0.853-5.306-2.558-6.908c-1.706-1.603-5.026-2.99-9.963-4.161l-15.344-3.97c-8.653-2.087-14.671-4.847-18.055-8.283
					c-3.385-3.436-5.076-8.333-5.076-14.696c0-7.226,2.735-12.965,8.206-17.215c5.47-4.249,12.965-6.374,22.483-6.374
					c9.72,0,17.456,2.265,23.208,6.794c5.75,4.53,8.627,10.612,8.627,18.246v0.305h-12.665c-0.394,0-0.715-0.303-0.758-0.695
					c-0.439-3.99-2.186-7.105-5.243-9.343c-3.232-2.367-7.622-3.55-13.169-3.55c-5.548,0-9.76,0.967-12.635,2.901
					c-2.876,1.935-4.314,4.76-4.314,8.475c0,2.647,0.903,4.721,2.71,6.222c1.806,1.501,5.178,2.812,10.115,3.931l13.283,3.13
					c9.467,2.24,15.981,5.103,19.544,8.589c3.562,3.487,5.344,8.462,5.344,14.924c0,8.5-2.99,15.104-8.97,19.811
					c-5.981,4.707-14.341,7.062-25.078,7.062c-10.485,0-18.539-2.494-24.162-7.481c-5.525-4.899-8.409-11.933-8.654-21.105
					C810.276,181.979,810.497,181.75,810.767,181.75z"/>
				<path style="fill:#FFFFFF;" d="M897.983,205.536V96.899c0-0.571,0.463-1.034,1.034-1.034h40.343
					c6.718,0,11.833,0.332,15.345,0.992c3.511,0.662,6.642,1.757,9.39,3.283c4.581,2.494,8.092,6.184,10.535,11.07
					c2.443,4.886,3.664,10.612,3.664,17.177c0,6.259-1.221,11.783-3.664,16.566c-2.443,4.785-6.006,8.601-10.688,11.451
					c-2.698,1.629-5.866,2.787-9.505,3.474c-3.639,0.686-9.632,1.03-17.979,1.03h-22.365c-0.465,0-0.843,0.377-0.843,0.843v45.312
					c0,0.693-0.561,1.254-1.254,1.254h-11.233C899.228,208.317,897.983,207.072,897.983,205.536z M913.25,146.477
					c0,0.465,0.377,0.843,0.843,0.843h24.808c8.906,0,15.128-1.424,18.666-4.275c3.536-2.85,5.306-7.736,5.306-14.658
					c0-6.667-1.757-11.451-5.268-14.353c-3.511-2.901-9.365-4.351-17.558-4.351h-25.954c-0.465,0-0.843,0.377-0.843,0.843V146.477z"
					/>
				<path style="fill:#FFFFFF;" d="M1044.171,197.4c-4.275,4.479-8.817,7.838-13.627,10.077c-4.81,2.239-9.912,3.359-15.306,3.359
					c-8.348,0-14.862-2.176-19.544-6.527c-4.683-4.352-7.023-10.37-7.023-18.055c0-7.43,2.302-13.257,6.909-17.482
					c4.605-4.224,11.616-6.948,21.032-8.169c2.392-0.254,5.623-0.611,9.695-1.069c6.972-0.712,11.247-1.399,12.826-2.062
					c1.577-0.611,2.62-1.412,3.13-2.404c0.508-0.992,0.764-3.142,0.764-6.451c0-4.172-1.527-7.302-4.581-9.39
					c-3.054-2.087-7.661-3.13-13.818-3.13c-6.362,0-11.158,1.273-14.39,3.817c-2.868,2.259-4.463,5.479-4.786,9.661
					c-0.071,0.92-0.828,1.638-1.751,1.638l-11.288,0v-0.611c0-8.245,2.901-14.759,8.703-19.544
					c5.802-4.783,13.792-7.176,23.971-7.176c10.942,0,18.996,2.05,24.162,6.146c5.165,4.098,7.749,10.498,7.749,19.2v40.919
					c0,3.511,0.381,5.777,1.145,6.794c0.764,1.019,2.138,1.527,4.123,1.527c0.407,0,0.903-0.039,1.488-0.115
					c0.238-0.031,0.495-0.068,0.772-0.112c0.695-0.11,1.328,0.427,1.328,1.131v8.364c0,0.521-0.353,0.982-0.858,1.111
					c-1.325,0.338-2.503,0.58-3.532,0.728c-1.248,0.177-2.431,0.267-3.55,0.267c-4.581,0-8.016-0.992-10.307-2.978
					c-2.29-1.985-3.435-4.987-3.435-9.008V197.4z M1042.873,166.71c-3.665,1.985-9.951,3.538-18.856,4.657
					c-3.157,0.408-5.523,0.739-7.1,0.992c-4.989,0.815-8.576,2.29-10.764,4.428c-2.189,2.137-3.283,5.242-3.283,9.313
					c0,4.073,1.272,7.202,3.817,9.39c2.544,2.189,6.183,3.283,10.917,3.283c7.379,0,13.436-1.857,18.169-5.572
					c4.733-3.715,7.1-8.475,7.1-14.276V166.71z"/>
				<path style="fill:#FFFFFF;" d="M1135.927,208.317v-50.309c0-8.041-1.235-13.601-3.703-16.681
					c-2.469-3.079-6.706-4.619-12.711-4.619c-7.685,0-13.654,2.176-17.902,6.527c-4.25,4.352-6.375,10.523-6.375,18.513v46.569
					h-13.741v-80.274c0-0.822,0.666-1.488,1.488-1.488h11.643v11.909c3.155-4.733,6.895-8.245,11.222-10.535
					c4.326-2.29,9.339-3.435,15.04-3.435c6.158,0,11.349,0.929,15.574,2.787c4.224,1.859,7.481,4.645,9.771,8.36
					c1.272,1.985,2.188,4.313,2.749,6.985c0.56,2.672,0.84,6.909,0.84,12.711v3.893v49.088H1135.927z"/>
				<path style="fill:#FFFFFF;" d="M1228.446,181.903h11.238c1.236,0,2.165,1.146,1.899,2.353c-1.74,7.9-5.509,14.216-11.306,18.947
					c-6.362,5.191-14.378,7.786-24.047,7.786c-11.35,0-20.307-3.817-26.873-11.451c-6.565-7.634-9.848-18.042-9.848-31.224
					c0-13.944,3.256-24.836,9.772-32.674c6.514-7.837,15.498-11.757,26.949-11.757c11.756,0,20.853,3.614,27.292,10.841
					c6.438,7.227,9.658,17.432,9.658,30.613c0,1.679-0.014,2.927-0.039,3.74c-0.026,0.815-0.089,1.603-0.191,2.367h-59.012
					c0.153,8.601,2.29,15.257,6.412,19.964c4.123,4.708,9.848,7.062,17.177,7.062c5.598,0,10.217-1.437,13.857-4.314
					C1225.022,191.281,1227.376,187.197,1228.446,181.903z M1183.861,159.992h44.889c-0.051-7.634-1.985-13.524-5.802-17.673
					c-3.817-4.147-9.237-6.222-16.261-6.222c-6.769,0-12.1,2.036-15.994,6.108C1186.801,146.277,1184.523,152.206,1183.861,159.992z
					"/>
				<path style="fill:#FFFFFF;" d="M1262.029,207.543V97.829c0-1.085,0.879-1.964,1.964-1.964h11.232
					c0.428,0,0.774,0.347,0.774,0.774v110.903c0,0.428-0.347,0.774-0.774,0.774h-12.422
					C1262.376,208.317,1262.029,207.97,1262.029,207.543z"/>
			</g>
		</g>
		<g>
			<path style="fill:#2AA0D3;" d="M572.694,78.037l-4.66-5.006c0,0,11.524-11.182,30.971-10.225l-0.317,6.441
				C598.689,69.247,583.226,67.576,572.694,78.037z"/>
			<path style="fill:#2AA0D3;" d="M576.104,81.457l1.93,2.073c-0.001,0.001-0.003,0.003-0.003,0.003l3.052,3.279
				c6.897-6.851,17.025-5.757,17.025-5.757l0.115-2.328l0.093-1.891l0.136-2.757C584.419,73.389,576.104,81.457,576.104,81.457z"/>
			<path style="fill:#2AA0D3;" d="M583.473,90.013l1.246,1.339c-0.001,0.001-0.002,0.002-0.002,0.002l1.105,1.187
				c-0.009,0.009-0.014,0.014-0.014,0.014l1.03,1.107c-0.001,0-0.002,0.001-0.002,0.001l1.629,1.75
				c3.682-3.657,9.087-3.073,9.087-3.073l0.061-1.243l0.05-1.009l0.016-0.335l0.056-1.137l0.018-0.366l0.06-1.221l0.088-1.78
				C588.842,84.803,583.473,90.013,583.473,90.013z"/>
			<path style="fill:#2AA0D3;" d="M622.363,80.48l5.128-4.525c0,0-10.371-12.259-29.818-13.215l-0.317,6.441
				C597.357,69.182,612.909,69.036,622.363,80.48z"/>
			<path style="fill:#2AA0D3;" d="M618.634,83.549l-2.124,1.874c0.001,0.001,0.003,0.003,0.003,0.003l-3.359,2.963
				c-6.192-7.495-16.378-7.4-16.378-7.4l0.115-2.328l0.093-1.891l0.136-2.757C611.151,74.704,618.634,83.549,618.634,83.549z"/>
			<path style="fill:#2AA0D3;" d="M610.849,91.359l-1.371,1.21c0.001,0.001,0.002,0.002,0.002,0.002l-1.216,1.073
				c0.008,0.01,0.013,0.015,0.013,0.015l-1.134,1c0,0.001,0.001,0.002,0.001,0.002l-1.793,1.582c-3.305-4.001-8.742-3.95-8.742-3.95
				l0.061-1.243l0.05-1.009l0.016-0.335l0.056-1.137l0.018-0.366l0.06-1.221l0.088-1.78
				C606.017,85.648,610.849,91.359,610.849,91.359z"/>
			<circle style="fill:#2AA0D3;" cx="597.501" cy="107.937" r="5.812"/>
		</g>
	</g>
</g>
</svg>
