<svg width="1256" height="1273" viewBox="0 0 942 954.75" xmlns="http://www.w3.org/2000/svg" xmlns:xlink="http://www.w3.org/1999/xlink">
<g id="graph0" class="graph" transform="translate(145.98717795360201,814.55236940935) scale(0.8038475899504927)">
<title>G</title>


<g id="clust8" class="cluster">
<title>cluster_6</title>
<path fill="rgba(0, 0, 0, 0)" stroke="red" d="M304,-8C304,-8 722,-8 722,-8 728,-8 734,-14 734,-20 734,-20 734,-73.8 734,-73.8 734,-79.8 728,-85.8 722,-85.8 722,-85.8 304,-85.8 304,-85.8 298,-85.8 292,-79.8 292,-73.8 292,-73.8 292,-20 292,-20 292,-14 298,-8 304,-8"/>
<text text-anchor="middle" x="513" y="-69.2" font-family="Microsoft YaHei" font-size="14.00">可视化输出</text>
</g>
<g id="clust9" class="cluster">
<title>cluster_7</title>
<path fill="rgba(0, 0, 0, 0)" stroke="red" d="M454,-104.8C454,-104.8 724,-104.8 724,-104.8 730,-104.8 736,-110.8 736,-116.8 736,-116.8 736,-170.6 736,-170.6 736,-176.6 730,-182.6 724,-182.6 724,-182.6 454,-182.6 454,-182.6 448,-182.6 442,-176.6 442,-170.6 442,-170.6 442,-116.8 442,-116.8 442,-110.8 448,-104.8 454,-104.8"/>
<text text-anchor="middle" x="589" y="-166" font-family="Microsoft YaHei" font-size="14.00">可视化插件(举例如下)</text>
</g>
<g id="clust10" class="cluster">
<title>cluster_8</title>
<path fill="rgba(0, 0, 0, 0)" stroke="#1874cd" d="M604,-536.2C604,-536.2 726,-536.2 726,-536.2 732,-536.2 738,-542.2 738,-548.2 738,-548.2 738,-602 738,-602 738,-608 732,-614 726,-614 726,-614 604,-614 604,-614 598,-614 592,-608 592,-602 592,-602 592,-548.2 592,-548.2 592,-542.2 598,-536.2 604,-536.2"/>
<text text-anchor="middle" x="665" y="-597.4" font-family="Microsoft YaHei" font-size="14.00">网络组件规则引擎</text>
</g>
<g id="clust1" class="cluster">
<title>cluster_0</title>
<path fill="rgba(0, 0, 0, 0)" stroke="#1874cd" d="M150,-826.6C150,-826.6 568,-826.6 568,-826.6 574,-826.6 580,-832.6 580,-838.6 580,-838.6 580,-892.4 580,-892.4 580,-898.4 574,-904.4 568,-904.4 568,-904.4 150,-904.4 150,-904.4 144,-904.4 138,-898.4 138,-892.4 138,-892.4 138,-838.6 138,-838.6 138,-832.6 144,-826.6 150,-826.6"/>
<text text-anchor="middle" x="359" y="-887.8" font-family="Microsoft YaHei" font-size="14.00">设备层</text>
</g>
<g id="clust3" class="cluster">
<title>cluster_1</title>
<path fill="rgba(0, 0, 0, 0)" stroke="#1874cd" d="M142,-536.2C142,-536.2 264,-536.2 264,-536.2 270,-536.2 276,-542.2 276,-548.2 276,-548.2 276,-698.8 276,-698.8 276,-704.8 270,-710.8 264,-710.8 264,-710.8 142,-710.8 142,-710.8 136,-710.8 130,-704.8 130,-698.8 130,-698.8 130,-548.2 130,-548.2 130,-542.2 136,-536.2 142,-536.2"/>
<text text-anchor="middle" x="203" y="-694.2" font-family="Microsoft YaHei" font-size="14.00">MQTT协议插件</text>
</g>
<g id="clust4" class="cluster">
<title>cluster_2</title>
<path fill="rgba(0, 0, 0, 0)" stroke="#1874cd" d="M296,-536.2C296,-536.2 418,-536.2 418,-536.2 424,-536.2 430,-542.2 430,-548.2 430,-548.2 430,-698.8 430,-698.8 430,-704.8 424,-710.8 418,-710.8 418,-710.8 296,-710.8 296,-710.8 290,-710.8 284,-704.8 284,-698.8 284,-698.8 284,-548.2 284,-548.2 284,-542.2 290,-536.2 296,-536.2"/>
<text text-anchor="middle" x="357" y="-694.2" font-family="Microsoft YaHei" font-size="14.00">Modbus协议插件</text>
</g>
<g id="clust5" class="cluster">
<title>cluster_3</title>
<path fill="rgba(0, 0, 0, 0)" stroke="#1874cd" d="M450,-536.2C450,-536.2 572,-536.2 572,-536.2 578,-536.2 584,-542.2 584,-548.2 584,-548.2 584,-698.8 584,-698.8 584,-704.8 578,-710.8 572,-710.8 572,-710.8 450,-710.8 450,-710.8 444,-710.8 438,-704.8 438,-698.8 438,-698.8 438,-548.2 438,-548.2 438,-542.2 444,-536.2 450,-536.2"/>
<text text-anchor="middle" x="511" y="-694.2" font-family="Microsoft YaHei" font-size="14.00">其它协议协议插件</text>
</g>
<g id="clust6" class="cluster">
<title>cluster_4</title>
<path fill="rgba(0, 0, 0, 0)" stroke="#1874cd" d="M150,-729.8C150,-729.8 568,-729.8 568,-729.8 574,-729.8 580,-735.8 580,-741.8 580,-741.8 580,-795.6 580,-795.6 580,-801.6 574,-807.6 568,-807.6 568,-807.6 150,-807.6 150,-807.6 144,-807.6 138,-801.6 138,-795.6 138,-795.6 138,-741.8 138,-741.8 138,-735.8 144,-729.8 150,-729.8"/>
<text text-anchor="middle" x="359" y="-791" font-family="Microsoft YaHei" font-size="14.00">外部网关服务</text>
</g>
<g id="clust7" class="cluster">
<title>cluster_5</title>
<path fill="rgba(0, 0, 0, 0)" stroke="#1874cd" d="M300,-104.8C300,-104.8 422,-104.8 422,-104.8 428,-104.8 434,-110.8 434,-116.8 434,-116.8 434,-357.2 434,-357.2 434,-363.2 428,-369.2 422,-369.2 422,-369.2 300,-369.2 300,-369.2 294,-369.2 288,-363.2 288,-357.2 288,-357.2 288,-116.8 288,-116.8 288,-110.8 294,-104.8 300,-104.8"/>
<text text-anchor="middle" x="361" y="-352.6" font-family="Microsoft YaHei" font-size="14.00">设备插件</text>
</g>
<!-- MQTT设备 -->
<g id="node1" class="node">
<title>MQTT设备</title>
<path fill="#1874cd" stroke="#1874cd" d="M158,-835.1C158,-835.1 264,-835.1 264,-835.1 270,-835.1 276,-841.1 276,-847.1 276,-847.1 276,-859.1 276,-859.1 276,-865.1 270,-871.1 264,-871.1 264,-871.1 158,-871.1 158,-871.1 152,-871.1 146,-865.1 146,-859.1 146,-859.1 146,-847.1 146,-847.1 146,-841.1 152,-835.1 158,-835.1"/>
<text text-anchor="middle" x="210.83" y="-848.9" font-family="Microsoft YaHei" font-size="14.00" fill="white">MQTT设备</text>
</g>
<!-- MQTT网关 -->
<g id="node10" class="node">
<title>MQTT网关</title>
<path fill="#1874cd" stroke="#1874cd" d="M158,-738.3C158,-738.3 264,-738.3 264,-738.3 270,-738.3 276,-744.3 276,-750.3 276,-750.3 276,-762.3 276,-762.3 276,-768.3 270,-774.3 264,-774.3 264,-774.3 158,-774.3 158,-774.3 152,-774.3 146,-768.3 146,-762.3 146,-762.3 146,-750.3 146,-750.3 146,-744.3 152,-738.3 158,-738.3"/>
<text text-anchor="middle" x="210.83" y="-752.1" font-family="Microsoft YaHei" font-size="14.00" fill="white">MQTT网关</text>
</g>
<!-- MQTT设备&#45;&gt;MQTT网关 -->
<g id="edge7" class="edge">
<title>MQTT设备-&gt;MQTT网关</title>
<path fill="none" stroke="#1874cd" d="M211,-834.71C211,-820.81 211,-801.07 211,-785"/>
<polygon fill="#1874cd" stroke="#1874cd" points="214.5,-784.58 211,-774.58 207.5,-784.58 214.5,-784.58"/>
</g>
<!-- Modbus设备 -->
<g id="node2" class="node">
<title>Modbus设备</title>
<path fill="#1874cd" stroke="#1874cd" d="M306,-835.1C306,-835.1 412,-835.1 412,-835.1 418,-835.1 424,-841.1 424,-847.1 424,-847.1 424,-859.1 424,-859.1 424,-865.1 418,-871.1 412,-871.1 412,-871.1 306,-871.1 306,-871.1 300,-871.1 294,-865.1 294,-859.1 294,-859.1 294,-847.1 294,-847.1 294,-841.1 300,-835.1 306,-835.1"/>
<text text-anchor="middle" x="358.95" y="-848.9" font-family="Microsoft YaHei" font-size="14.00" fill="white">Modbus设备</text>
</g>
<!-- Modbus网关 -->
<g id="node11" class="node">
<title>Modbus网关</title>
<path fill="#1874cd" stroke="#1874cd" d="M306,-738.3C306,-738.3 412,-738.3 412,-738.3 418,-738.3 424,-744.3 424,-750.3 424,-750.3 424,-762.3 424,-762.3 424,-768.3 418,-774.3 412,-774.3 412,-774.3 306,-774.3 306,-774.3 300,-774.3 294,-768.3 294,-762.3 294,-762.3 294,-750.3 294,-750.3 294,-744.3 300,-738.3 306,-738.3"/>
<text text-anchor="middle" x="358.95" y="-752.1" font-family="Microsoft YaHei" font-size="14.00" fill="white">Modbus网关</text>
</g>
<!-- Modbus设备&#45;&gt;Modbus网关 -->
<g id="edge3" class="edge">
<title>Modbus设备-&gt;Modbus网关</title>
<path fill="none" stroke="#1874cd" d="M359,-834.71C359,-820.81 359,-801.07 359,-785"/>
<polygon fill="#1874cd" stroke="#1874cd" points="362.5,-784.58 359,-774.58 355.5,-784.58 362.5,-784.58"/>
</g>
<!-- 其它协议设备 -->
<g id="node3" class="node">
<title>其它协议设备</title>
<path fill="#1874cd" stroke="#1874cd" d="M454,-835.1C454,-835.1 560,-835.1 560,-835.1 566,-835.1 572,-841.1 572,-847.1 572,-847.1 572,-859.1 572,-859.1 572,-865.1 566,-871.1 560,-871.1 560,-871.1 454,-871.1 454,-871.1 448,-871.1 442,-865.1 442,-859.1 442,-859.1 442,-847.1 442,-847.1 442,-841.1 448,-835.1 454,-835.1"/>
<text text-anchor="middle" x="507" y="-848.9" font-family="Microsoft YaHei" font-size="14.00" fill="white">其它协议设备</text>
</g>
<!-- 其它协议网关 -->
<g id="node12" class="node">
<title>其它协议网关</title>
<path fill="#1874cd" stroke="#1874cd" d="M454,-738.3C454,-738.3 560,-738.3 560,-738.3 566,-738.3 572,-744.3 572,-750.3 572,-750.3 572,-762.3 572,-762.3 572,-768.3 566,-774.3 560,-774.3 560,-774.3 454,-774.3 454,-774.3 448,-774.3 442,-768.3 442,-762.3 442,-762.3 442,-750.3 442,-750.3 442,-744.3 448,-738.3 454,-738.3"/>
<text text-anchor="middle" x="507" y="-752.1" font-family="Microsoft YaHei" font-size="14.00" fill="white">其它协议网关</text>
</g>
<!-- 其它协议设备&#45;&gt;其它协议网关 -->
<g id="edge11" class="edge">
<title>其它协议设备-&gt;其它协议网关</title>
<path fill="none" stroke="#1874cd" d="M507,-834.71C507,-820.81 507,-801.07 507,-785"/>
<polygon fill="#1874cd" stroke="#1874cd" points="510.5,-784.58 507,-774.58 503.5,-784.58 510.5,-784.58"/>
</g>
<!-- MQTT连接 -->
<g id="node4" class="node">
<title>MQTT连接</title>
<path fill="#1874cd" stroke="#1874cd" d="M150,-641.5C150,-641.5 256,-641.5 256,-641.5 262,-641.5 268,-647.5 268,-653.5 268,-653.5 268,-665.5 268,-665.5 268,-671.5 262,-677.5 256,-677.5 256,-677.5 150,-677.5 150,-677.5 144,-677.5 138,-671.5 138,-665.5 138,-665.5 138,-653.5 138,-653.5 138,-647.5 144,-641.5 150,-641.5"/>
<text text-anchor="middle" x="202.83" y="-655.3" font-family="Microsoft YaHei" font-size="14.00" fill="white">MQTT连接</text>
</g>
<!-- MQTT解析转换 -->
<g id="node5" class="node">
<title>MQTT解析转换</title>
<path fill="#1874cd" stroke="#1874cd" d="M150,-544.7C150,-544.7 256,-544.7 256,-544.7 262,-544.7 268,-550.7 268,-556.7 268,-556.7 268,-568.7 268,-568.7 268,-574.7 262,-580.7 256,-580.7 256,-580.7 150,-580.7 150,-580.7 144,-580.7 138,-574.7 138,-568.7 138,-568.7 138,-556.7 138,-556.7 138,-550.7 144,-544.7 150,-544.7"/>
<text text-anchor="middle" x="202.83" y="-558.5" font-family="Microsoft YaHei" font-size="14.00" fill="white">MQTT解析转换</text>
</g>
<!-- MQTT连接&#45;&gt;MQTT解析转换 -->
<g id="edge9" class="edge">
<title>MQTT连接-&gt;MQTT解析转换</title>
<path fill="none" stroke="#1874cd" d="M203,-641.11C203,-627.21 203,-607.47 203,-591.4"/>
<polygon fill="#1874cd" stroke="#1874cd" points="206.5,-590.98 203,-580.98 199.5,-590.98 206.5,-590.98"/>
</g>
<!-- 单设备 -->
<g id="node22" class="node">
<title>单设备</title>
<path fill="#1874cd" stroke="#1874cd" d="M308,-470.7C308,-470.7 414,-470.7 414,-470.7 420,-470.7 426,-476.7 426,-482.7 426,-482.7 426,-494.7 426,-494.7 426,-500.7 420,-506.7 414,-506.7 414,-506.7 308,-506.7 308,-506.7 302,-506.7 296,-500.7 296,-494.7 296,-494.7 296,-482.7 296,-482.7 296,-476.7 302,-470.7 308,-470.7"/>
<text text-anchor="middle" x="360.75" y="-484.5" font-family="Microsoft YaHei" font-size="14.00" fill="white">单设备</text>
</g>
<!-- MQTT解析转换&#45;&gt;单设备 -->
<g id="edge10" class="edge">
<title>MQTT解析转换-&gt;单设备</title>
<path fill="none" stroke="#1874cd" d="M240.44,-544.64C262.6,-534.54 290.85,-521.67 314.43,-510.92"/>
<polygon fill="#1874cd" stroke="#1874cd" points="315.9,-514.1 323.55,-506.77 313,-507.73 315.9,-514.1"/>
</g>
<!-- Modbus连接 -->
<g id="node6" class="node">
<title>Modbus连接</title>
<path fill="#1874cd" stroke="#1874cd" d="M304,-641.5C304,-641.5 410,-641.5 410,-641.5 416,-641.5 422,-647.5 422,-653.5 422,-653.5 422,-665.5 422,-665.5 422,-671.5 416,-677.5 410,-677.5 410,-677.5 304,-677.5 304,-677.5 298,-677.5 292,-671.5 292,-665.5 292,-665.5 292,-653.5 292,-653.5 292,-647.5 298,-641.5 304,-641.5"/>
<text text-anchor="middle" x="356.95" y="-655.3" font-family="Microsoft YaHei" font-size="14.00" fill="white">Modbus连接</text>
</g>
<!-- Modbus解析转换 -->
<g id="node7" class="node">
<title>Modbus解析转换</title>
<path fill="#1874cd" stroke="#1874cd" d="M304,-544.7C304,-544.7 410,-544.7 410,-544.7 416,-544.7 422,-550.7 422,-556.7 422,-556.7 422,-568.7 422,-568.7 422,-574.7 416,-580.7 410,-580.7 410,-580.7 304,-580.7 304,-580.7 298,-580.7 292,-574.7 292,-568.7 292,-568.7 292,-556.7 292,-556.7 292,-550.7 298,-544.7 304,-544.7"/>
<text text-anchor="middle" x="356.95" y="-558.5" font-family="Microsoft YaHei" font-size="14.00" fill="white">Modbus解析转换</text>
</g>
<!-- Modbus连接&#45;&gt;Modbus解析转换 -->
<g id="edge5" class="edge">
<title>Modbus连接-&gt;Modbus解析转换</title>
<path fill="none" stroke="#1874cd" d="M357,-641.11C357,-627.21 357,-607.47 357,-591.4"/>
<polygon fill="#1874cd" stroke="#1874cd" points="360.5,-590.98 357,-580.98 353.5,-590.98 360.5,-590.98"/>
</g>
<!-- Modbus解析转换&#45;&gt;单设备 -->
<g id="edge6" class="edge">
<title>Modbus解析转换-&gt;单设备</title>
<path fill="none" stroke="#1874cd" d="M357.95,-544.64C358.4,-536.51 358.95,-526.58 359.46,-517.4"/>
<polygon fill="#1874cd" stroke="#1874cd" points="362.97,-517.32 360.03,-507.14 355.98,-516.93 362.97,-517.32"/>
</g>
<!-- 其它协议连接 -->
<g id="node8" class="node">
<title>其它协议连接</title>
<path fill="#1874cd" stroke="#1874cd" d="M458,-641.5C458,-641.5 564,-641.5 564,-641.5 570,-641.5 576,-647.5 576,-653.5 576,-653.5 576,-665.5 576,-665.5 576,-671.5 570,-677.5 564,-677.5 564,-677.5 458,-677.5 458,-677.5 452,-677.5 446,-671.5 446,-665.5 446,-665.5 446,-653.5 446,-653.5 446,-647.5 452,-641.5 458,-641.5"/>
<text text-anchor="middle" x="511" y="-655.3" font-family="Microsoft YaHei" font-size="14.00" fill="white">其它协议连接</text>
</g>
<!-- 其它协议解析转换 -->
<g id="node9" class="node">
<title>其它协议解析转换</title>
<path fill="#1874cd" stroke="#1874cd" d="M458,-544.7C458,-544.7 564,-544.7 564,-544.7 570,-544.7 576,-550.7 576,-556.7 576,-556.7 576,-568.7 576,-568.7 576,-574.7 570,-580.7 564,-580.7 564,-580.7 458,-580.7 458,-580.7 452,-580.7 446,-574.7 446,-568.7 446,-568.7 446,-556.7 446,-556.7 446,-550.7 452,-544.7 458,-544.7"/>
<text text-anchor="middle" x="511" y="-558.5" font-family="Microsoft YaHei" font-size="14.00" fill="white">其它协议解析转换</text>
</g>
<!-- 其它协议连接&#45;&gt;其它协议解析转换 -->
<g id="edge13" class="edge">
<title>其它协议连接-&gt;其它协议解析转换</title>
<path fill="none" stroke="#1874cd" d="M511,-641.11C511,-627.21 511,-607.47 511,-591.4"/>
<polygon fill="#1874cd" stroke="#1874cd" points="514.5,-590.98 511,-580.98 507.5,-590.98 514.5,-590.98"/>
</g>
<!-- 其它协议解析转换&#45;&gt;单设备 -->
<g id="edge14" class="edge">
<title>其它协议解析转换-&gt;单设备</title>
<path fill="none" stroke="#1874cd" d="M475.45,-544.64C454.61,-534.63 428.07,-521.9 405.81,-511.21"/>
<polygon fill="#1874cd" stroke="#1874cd" points="407.08,-507.94 396.55,-506.77 404.05,-514.25 407.08,-507.94"/>
</g>
<!-- MQTT网关&#45;&gt;MQTT连接 -->
<g id="edge8" class="edge">
<title>MQTT网关-&gt;MQTT连接</title>
<path fill="none" stroke="#1874cd" d="M209.53,-737.91C208.36,-724.01 206.69,-704.27 205.34,-688.2"/>
<polygon fill="#1874cd" stroke="#1874cd" points="208.79,-687.45 204.46,-677.78 201.81,-688.04 208.79,-687.45"/>
</g>
<!-- Modbus网关&#45;&gt;Modbus连接 -->
<g id="edge4" class="edge">
<title>Modbus网关-&gt;Modbus连接</title>
<path fill="none" stroke="#1874cd" d="M358.63,-737.91C358.34,-724.01 357.92,-704.27 357.58,-688.2"/>
<polygon fill="#1874cd" stroke="#1874cd" points="361.07,-687.7 357.36,-677.78 354.08,-687.85 361.07,-687.7"/>
</g>
<!-- 其它协议网关&#45;&gt;其它协议连接 -->
<g id="edge12" class="edge">
<title>其它协议网关-&gt;其它协议连接</title>
<path fill="none" stroke="#1874cd" d="M507.73,-737.91C508.32,-724.01 509.15,-704.27 509.83,-688.2"/>
<polygon fill="#1874cd" stroke="#1874cd" points="513.35,-687.92 510.27,-677.78 506.35,-687.62 513.35,-687.92"/>
</g>
<!-- 数据转换规则 -->
<g id="node21" class="node">
<title>数据转换规则</title>
<path fill="#1874cd" stroke="#1874cd" d="M612,-544.7C612,-544.7 718,-544.7 718,-544.7 724,-544.7 730,-550.7 730,-556.7 730,-556.7 730,-568.7 730,-568.7 730,-574.7 724,-580.7 718,-580.7 718,-580.7 612,-580.7 612,-580.7 606,-580.7 600,-574.7 600,-568.7 600,-568.7 600,-556.7 600,-556.7 600,-550.7 606,-544.7 612,-544.7"/>
<text text-anchor="middle" x="665" y="-558.5" font-family="Microsoft YaHei" font-size="14.00" fill="white">数据转换规则</text>
</g>
<!-- 其它协议网关&#45;&gt;数据转换规则 -->
<g id="edge22" class="edge">
<title>其它协议网关-&gt;数据转换规则</title>
<path fill="none" stroke="red" d="M563.74,-729.8C572.49,-724.33 580.95,-717.99 588,-710.8 612.21,-686.1 630.64,-652.24 643.39,-623.23"/>
<polygon fill="red" stroke="red" points="646.63,-624.57 647.33,-614 640.19,-621.82 646.63,-624.57"/>
</g>
<!-- 物模型 -->
<g id="node13" class="node">
<title>物模型</title>
<path fill="#1874cd" stroke="#1874cd" d="M308,-299.9C308,-299.9 414,-299.9 414,-299.9 420,-299.9 426,-305.9 426,-311.9 426,-311.9 426,-323.9 426,-323.9 426,-329.9 420,-335.9 414,-335.9 414,-335.9 308,-335.9 308,-335.9 302,-335.9 296,-329.9 296,-323.9 296,-323.9 296,-311.9 296,-311.9 296,-305.9 302,-299.9 308,-299.9"/>
<text text-anchor="middle" x="360.75" y="-313.7" font-family="Microsoft YaHei" font-size="14.00" fill="white">物模型</text>
</g>
<!-- 设备数据 -->
<g id="node14" class="node">
<title>设备数据</title>
<path fill="#1874cd" stroke="#1874cd" d="M308,-225.9C308,-225.9 414,-225.9 414,-225.9 420,-225.9 426,-231.9 426,-237.9 426,-237.9 426,-249.9 426,-249.9 426,-255.9 420,-261.9 414,-261.9 414,-261.9 308,-261.9 308,-261.9 302,-261.9 296,-255.9 296,-249.9 296,-249.9 296,-237.9 296,-237.9 296,-231.9 302,-225.9 308,-225.9"/>
<text text-anchor="middle" x="361" y="-239.7" font-family="Microsoft YaHei" font-size="14.00" fill="white">设备数据</text>
</g>
<!-- 物模型&#45;&gt;设备数据 -->
<g id="edge1" class="edge">
<title>物模型-&gt;设备数据</title>
<path fill="none" stroke="#1874cd" d="M361,-299.84C361,-291.71 361,-281.78 361,-272.6"/>
<polygon fill="#1874cd" stroke="#1874cd" points="364.5,-272.34 361,-262.34 357.5,-272.34 364.5,-272.34"/>
</g>
<!-- 已绑定数据图表单元 -->
<g id="node15" class="node">
<title>已绑定数据图表单元</title>
<path fill="#1874cd" stroke="#1874cd" d="M308,-113.3C308,-113.3 414,-113.3 414,-113.3 420,-113.3 426,-119.3 426,-125.3 426,-125.3 426,-137.3 426,-137.3 426,-143.3 420,-149.3 414,-149.3 414,-149.3 308,-149.3 308,-149.3 302,-149.3 296,-143.3 296,-137.3 296,-137.3 296,-125.3 296,-125.3 296,-119.3 302,-113.3 308,-113.3"/>
<text text-anchor="middle" x="360.75" y="-127.1" font-family="Microsoft YaHei" font-size="14.00" fill="white">已绑定数据图表单元</text>
</g>
<!-- 设备数据&#45;&gt;已绑定数据图表单元 -->
<g id="edge2" class="edge">
<title>设备数据-&gt;已绑定数据图表单元</title>
<path fill="none" stroke="#1874cd" d="M361,-225.62C361,-207.92 361,-180.17 361,-159.52"/>
<polygon fill="#1874cd" stroke="#1874cd" points="364.5,-159.46 361,-149.46 357.5,-159.46 364.5,-159.46"/>
</g>
<!-- 汇总型图标单元插件 -->
<g id="node19" class="node">
<title>汇总型图标单元插件</title>
<path fill="#1874cd" stroke="#1874cd" d="M610,-113.3C610,-113.3 716,-113.3 716,-113.3 722,-113.3 728,-119.3 728,-125.3 728,-125.3 728,-137.3 728,-137.3 728,-143.3 722,-149.3 716,-149.3 716,-149.3 610,-149.3 610,-149.3 604,-149.3 598,-143.3 598,-137.3 598,-137.3 598,-125.3 598,-125.3 598,-119.3 604,-113.3 610,-113.3"/>
<text text-anchor="middle" x="662.75" y="-127.1" font-family="Microsoft YaHei" font-size="14.00" fill="white">汇总型图标单元插件</text>
</g>
<!-- 设备数据&#45;&gt;汇总型图标单元插件 -->
<g id="edge17" class="edge">
<title>设备数据-&gt;汇总型图标单元插件</title>
<path fill="none" stroke="#1874cd" d="M434,-230.16C477,-221.18 532.12,-207.08 579.69,-186.71"/>
<polygon fill="#1874cd" stroke="#1874cd" points="581.27,-189.84 589,-182.6 578.44,-183.44 581.27,-189.84"/>
<text text-anchor="middle" x="586" y="-194.8" font-family="Times,serif" font-size="14.00">绑定数据</text>
</g>
<!-- 自动化 -->
<g id="node25" class="node">
<title>自动化</title>
<path fill="#1874cd" stroke="#1874cd" d="M12,-113.3C12,-113.3 118,-113.3 118,-113.3 124,-113.3 130,-119.3 130,-125.3 130,-125.3 130,-137.3 130,-137.3 130,-143.3 124,-149.3 118,-149.3 118,-149.3 12,-149.3 12,-149.3 6,-149.3 0,-143.3 0,-137.3 0,-137.3 0,-125.3 0,-125.3 0,-119.3 6,-113.3 12,-113.3"/>
<text text-anchor="middle" x="64.75" y="-127.1" font-family="Microsoft YaHei" font-size="14.00" fill="white">自动化</text>
</g>
<!-- 设备数据&#45;&gt;自动化 -->
<g id="edge19" class="edge">
<title>设备数据-&gt;自动化</title>
<path fill="none" stroke="#1874cd" d="M295.88,-231.16C250.55,-221.58 189.43,-205.8 139,-182.6 123.37,-175.41 107.42,-165.03 94.34,-155.56"/>
<polygon fill="#1874cd" stroke="#1874cd" points="96.31,-152.67 86.2,-149.52 92.14,-158.29 96.31,-152.67"/>
</g>
<!-- 数据转发 -->
<g id="node27" class="node">
<title>数据转发</title>
<path fill="#1874cd" stroke="#1874cd" d="M160,-113.3C160,-113.3 266,-113.3 266,-113.3 272,-113.3 278,-119.3 278,-125.3 278,-125.3 278,-137.3 278,-137.3 278,-143.3 272,-149.3 266,-149.3 266,-149.3 160,-149.3 160,-149.3 154,-149.3 148,-143.3 148,-137.3 148,-137.3 148,-125.3 148,-125.3 148,-119.3 154,-113.3 160,-113.3"/>
<text text-anchor="middle" x="213" y="-127.1" font-family="Microsoft YaHei" font-size="14.00" fill="white">数据转发</text>
</g>
<!-- 设备数据&#45;&gt;数据转发 -->
<g id="edge21" class="edge">
<title>设备数据-&gt;数据转发</title>
<path fill="none" stroke="#1874cd" d="M338.2,-225.86C313.07,-207.08 272.48,-176.75 244.37,-155.74"/>
<polygon fill="#1874cd" stroke="#1874cd" points="246.18,-152.72 236.07,-149.54 241.99,-158.33 246.18,-152.72"/>
</g>
<!-- 组态大屏 -->
<g id="node18" class="node">
<title>组态大屏</title>
<path fill="#1874cd" stroke="#1874cd" d="M312,-16.5C312,-16.5 418,-16.5 418,-16.5 424,-16.5 430,-22.5 430,-28.5 430,-28.5 430,-40.5 430,-40.5 430,-46.5 424,-52.5 418,-52.5 418,-52.5 312,-52.5 312,-52.5 306,-52.5 300,-46.5 300,-40.5 300,-40.5 300,-28.5 300,-28.5 300,-22.5 306,-16.5 312,-16.5"/>
<text text-anchor="middle" x="365" y="-30.3" font-family="Microsoft YaHei" font-size="14.00" fill="white">组态大屏</text>
</g>
<!-- 已绑定数据图表单元&#45;&gt;组态大屏 -->
<g id="edge24" class="edge">
<title>已绑定数据图表单元-&gt;组态大屏</title>
<path fill="none" stroke="#1874cd" d="M362.08,-104.8C362.19,-102.04 362.31,-99.14 362.44,-96.17"/>
<polygon fill="#1874cd" stroke="#1874cd" points="365.95,-95.93 362.88,-85.8 358.96,-95.64 365.95,-95.93"/>
</g>
<!-- 分类报表 -->
<g id="node16" class="node">
<title>分类报表</title>
<path fill="#1874cd" stroke="#1874cd" d="M608,-16.5C608,-16.5 714,-16.5 714,-16.5 720,-16.5 726,-22.5 726,-28.5 726,-28.5 726,-40.5 726,-40.5 726,-46.5 720,-52.5 714,-52.5 714,-52.5 608,-52.5 608,-52.5 602,-52.5 596,-46.5 596,-40.5 596,-40.5 596,-28.5 596,-28.5 596,-22.5 602,-16.5 608,-16.5"/>
<text text-anchor="middle" x="661" y="-30.3" font-family="Microsoft YaHei" font-size="14.00" fill="white">分类报表</text>
</g>
<!-- 图表大屏 -->
<g id="node17" class="node">
<title>图表大屏</title>
<path fill="#1874cd" stroke="#1874cd" d="M460,-16.5C460,-16.5 566,-16.5 566,-16.5 572,-16.5 578,-22.5 578,-28.5 578,-28.5 578,-40.5 578,-40.5 578,-46.5 572,-52.5 566,-52.5 566,-52.5 460,-52.5 460,-52.5 454,-52.5 448,-46.5 448,-40.5 448,-40.5 448,-28.5 448,-28.5 448,-22.5 454,-16.5 460,-16.5"/>
<text text-anchor="middle" x="513" y="-30.3" font-family="Microsoft YaHei" font-size="14.00" fill="white">图表大屏</text>
</g>
<!-- 汇总型图标单元插件&#45;&gt;分类报表 -->
<g id="edge25" class="edge">
<title>汇总型图标单元插件-&gt;分类报表</title>
<path fill="none" stroke="#1874cd" d="M662.46,-104.8C662.4,-102.04 662.34,-99.14 662.28,-96.17"/>
<polygon fill="#1874cd" stroke="#1874cd" points="665.77,-95.72 662.06,-85.8 658.77,-95.87 665.77,-95.72"/>
</g>
<!-- 可视化图元插件 -->
<g id="node20" class="node">
<title>可视化图元插件</title>
<path fill="#1874cd" stroke="#1874cd" d="M462,-113.3C462,-113.3 568,-113.3 568,-113.3 574,-113.3 580,-119.3 580,-125.3 580,-125.3 580,-137.3 580,-137.3 580,-143.3 574,-149.3 568,-149.3 568,-149.3 462,-149.3 462,-149.3 456,-149.3 450,-143.3 450,-137.3 450,-137.3 450,-125.3 450,-125.3 450,-119.3 456,-113.3 462,-113.3"/>
<text text-anchor="middle" x="514.75" y="-127.1" font-family="Microsoft YaHei" font-size="14.00" fill="white">可视化图元插件</text>
</g>
<!-- 数据转换规则&#45;&gt;单设备 -->
<g id="edge23" class="edge">
<title>数据转换规则-&gt;单设备</title>
<path fill="none" stroke="red" d="M616.38,-544.64C607.02,-541.63 597.25,-538.67 588,-536.2 537.77,-522.79 480.41,-511.07 435.92,-502.75"/>
<polygon fill="red" stroke="red" points="436.52,-499.3 426.05,-500.92 435.25,-506.18 436.52,-499.3"/>
</g>
<!-- 消息队列 -->
<g id="node23" class="node">
<title>消息队列</title>
<path fill="#1874cd" stroke="#1874cd" d="M308,-396.7C308,-396.7 414,-396.7 414,-396.7 420,-396.7 426,-402.7 426,-408.7 426,-408.7 426,-420.7 426,-420.7 426,-426.7 420,-432.7 414,-432.7 414,-432.7 308,-432.7 308,-432.7 302,-432.7 296,-426.7 296,-420.7 296,-420.7 296,-408.7 296,-408.7 296,-402.7 302,-396.7 308,-396.7"/>
<text text-anchor="middle" x="361" y="-410.5" font-family="Microsoft YaHei" font-size="14.00" fill="white">消息队列</text>
</g>
<!-- 单设备&#45;&gt;消息队列 -->
<g id="edge15" class="edge">
<title>单设备-&gt;消息队列</title>
<path fill="none" stroke="#1874cd" d="M361,-470.64C361,-462.51 361,-452.58 361,-443.4"/>
<polygon fill="#1874cd" stroke="#1874cd" points="364.5,-443.14 361,-433.14 357.5,-443.14 364.5,-443.14"/>
</g>
<!-- 消息队列&#45;&gt;物模型 -->
<g id="edge16" class="edge">
<title>消息队列-&gt;物模型</title>
<path fill="none" stroke="#1874cd" d="M361,-396.31C361,-391.34 361,-385.61 361,-379.57"/>
<polygon fill="#1874cd" stroke="#1874cd" points="364.5,-379.2 361,-369.2 357.5,-379.2 364.5,-379.2"/>
</g>
<!-- 外部数据 -->
<g id="node24" class="node">
<title>外部数据</title>
<path fill="#1874cd" stroke="#1874cd" d="M610,-225.9C610,-225.9 716,-225.9 716,-225.9 722,-225.9 728,-231.9 728,-237.9 728,-237.9 728,-249.9 728,-249.9 728,-255.9 722,-261.9 716,-261.9 716,-261.9 610,-261.9 610,-261.9 604,-261.9 598,-255.9 598,-249.9 598,-249.9 598,-237.9 598,-237.9 598,-231.9 604,-225.9 610,-225.9"/>
<text text-anchor="middle" x="663" y="-239.7" font-family="Microsoft YaHei" font-size="14.00" fill="white">外部数据</text>
</g>
<!-- 外部数据&#45;&gt;汇总型图标单元插件 -->
<g id="edge18" class="edge">
<title>外部数据-&gt;汇总型图标单元插件</title>
<path fill="none" stroke="#1874cd" d="M663,-225.62C663,-216.54 663,-204.81 663,-192.75"/>
<polygon fill="#1874cd" stroke="#1874cd" points="666.5,-192.6 663,-182.6 659.5,-192.6 666.5,-192.6"/>
</g>
<!-- 告警 -->
<g id="node26" class="node">
<title>告警</title>
<path fill="#1874cd" stroke="#1874cd" d="M12,-16.5C12,-16.5 118,-16.5 118,-16.5 124,-16.5 130,-22.5 130,-28.5 130,-28.5 130,-40.5 130,-40.5 130,-46.5 124,-52.5 118,-52.5 118,-52.5 12,-52.5 12,-52.5 6,-52.5 0,-46.5 0,-40.5 0,-40.5 0,-28.5 0,-28.5 0,-22.5 6,-16.5 12,-16.5"/>
<text text-anchor="middle" x="65" y="-30.3" font-family="Microsoft YaHei" font-size="14.00" fill="white">告警</text>
</g>
<!-- 自动化&#45;&gt;告警 --><g id="edge20" class="edge">
<title>自动化-&gt;告警</title>
<path fill="none" stroke="#1874cd" d="M65,-112.91C65,-99.01 65,-79.27 65,-63.2"/>
<polygon fill="#1874cd" stroke="#1874cd" points="68.5,-62.78 65,-52.78 61.5,-62.78 68.5,-62.78"/>
</g></g>
</svg>